<svg width="1347" height="194" viewBox="0 0 1347 194" fill="none" xmlns="http://www.w3.org/2000/svg">
<path d="M1084.78 193.723V0H1264.11C1313.65 0 1346.31 33.4864 1346.31 74.7218C1346.31 102.396 1331.36 126.75 1306.45 139.481L1341.88 193.723H1271.31L1245.02 149.444H1145.94V193.723H1084.78ZM1145.94 96.0313H1264.11C1275.74 96.0313 1285.42 86.6219 1285.42 74.7218C1285.42 62.8216 1275.74 53.4122 1264.11 53.4122H1145.94V96.0313Z" fill="#FFF9E4"/>
<path d="M1057.24 52.582H886.484V71.9543H1038.42V122.322H886.484V141.141H1057.24V193.723H825.6V0H1057.24V52.582Z" fill="#FFF9E4"/>
<path d="M729.456 0H808.883L694.309 115.957V193.723H633.425V115.68L519.405 0H598.278L663.867 64.7588L729.456 0Z" fill="#FFF9E4"/>
<path d="M409.744 140.311H574.685V193.723H348.859V0H409.744V140.311Z" fill="#FFF9E4"/>
<path d="M321.317 52.582H150.564V79.1497H302.498V131.732H150.564V193.723H89.6792V0H321.317V52.582Z" fill="#FFF9E4"/>
<path d="M12.4842 3.12131e-06L12.4842 40.5406H17.0836L17.0836 4.46801L29.0421 4.46801L29.0421 40.5406H33.5101V2.20224e-06L45.9942 1.65654e-06L45.9942 54.996L2.40395e-06 54.996L0 3.66701e-06L12.4842 3.12131e-06Z" fill="#FFF9E4"/>
<path d="M3.94848e-06 75.9952L3.31661e-06 61.5399H45.9942V75.9952H28.9107L28.9107 110.097H45.9942L45.9943 124.552H6.07096e-06L5.4391e-06 110.097H16.098L16.098 75.9952H3.94848e-06Z" fill="#FFF9E4"/>
<path d="M7.00086e-06 131.105L12.6813 131.105L12.6813 155.219H45.9943V169.675H12.6813L12.6813 193.723H9.73797e-06L7.00086e-06 131.105Z" fill="#FFF9E4"/>
</svg>
