<svg width="351" height="51" viewBox="0 0 351 51" fill="none" xmlns="http://www.w3.org/2000/svg">
<path d="M282.63 50.7295V0.348251H329.268C342.152 0.348251 350.645 9.05701 350.645 19.781C350.645 26.9784 346.758 33.312 340.28 36.6228L349.493 50.7295H331.14L324.302 39.2138H298.536V50.7295H282.63ZM298.536 25.323H329.268C332.291 25.323 334.81 22.8759 334.81 19.781C334.81 16.6862 332.291 14.2391 329.268 14.2391H298.536V25.323Z" fill="#036746"/>
<path d="M275.467 14.0232H231.059V19.0613H270.573V32.1604H231.059V37.0546H275.467V50.7295H215.225V0.348251H275.467V14.0232Z" fill="#036746"/>
<path d="M190.221 0.348251H210.878L181.081 30.505V50.7295H165.247V30.4331L135.594 0.348251H156.106L173.164 17.19L190.221 0.348251Z" fill="#036746"/>
<path d="M107.074 36.8387H149.97V50.7295H91.24V0.348251H107.074V36.8387Z" fill="#036746"/>
<path d="M84.077 14.0232H39.6695V20.9326H79.1828V34.6075H39.6695V50.7295H23.8354V0.348251H84.077V14.0232Z" fill="#036746"/>
<path d="M3.75937 0.348252L3.75937 10.8916H4.95554L4.95554 1.51024L8.06557 1.51024L8.06557 10.8916H9.22756V0.348252L12.4743 0.348252L12.4743 14.651L0.512635 14.651L0.512634 0.348252L3.75937 0.348252Z" fill="#036746"/>
<path d="M0.512635 20.1122L0.512635 16.3528H12.4743V20.1122H8.03139L8.03139 28.9809H12.4743L12.4743 32.7403H0.512636L0.512636 28.9809H4.69922L4.69922 20.1122H0.512635Z" fill="#036746"/>
<path d="M0.512636 34.4446L3.81064 34.4446L3.81064 40.7159H12.4743V44.4753H3.81064L3.81064 50.7295H0.512637L0.512636 34.4446Z" fill="#036746"/>
</svg>
